<?xml version="1.0" encoding="UTF-8"?>
<svg width="128" height="128" viewBox="0 0 128 128" xmlns="http://www.w3.org/2000/svg">
  <!-- Background -->
  <rect width="128" height="128" fill="#2c3e50"/>
  
  <!-- GitHub logo (simplified) -->
  <path d="M64 16C38.4 16 16 38.4 16 64c0 21.2 13.6 39.2 32.4 45.6 2.4.4 3.2-1 3.2-2.2 0-1.1 0-4.8 0-8.8-13.2 2.8-16-6.4-16-6.4-2.2-5.6-5.4-7.2-5.4-7.2-4.4-3 .4-2.8.4-2.8 4.8.4 7.4 5 7.4 5 4.4 7.4 11.4 5.2 14.2 4 0.4-3.2 1.6-5.2 3-6.4-10.4-1.2-21.4-5.2-21.4-23.2 0-5.2 1.8-9.4 5-12.8-0.5-1.2-2.2-6 0.5-12.4 0 0 4.1-1.2 13.4 4.8 3.9-1.1 8-1.6 12.2-1.6 4.2 0 8.3.5 12.2 1.6 9.3-6 13.4-4.8 13.4-4.8 2.7 6.4 1 11.2 0.5 12.4 3.2 3.4 5 7.6 5 12.8 0 18-11 22-21.4 23.2 1.7 1.5 3.2 4.4 3.2 8.8 0 6.4 0 11.6 0 13.2 0 1.2.8 2.6 3.2 2.2C98.4 103.2 112 85.2 112 64 112 38.4 89.6 16 64 16z" fill="#4a90e2"/>
  
  <!-- RPG elements -->
  <circle cx="64" cy="64" r="48" fill="none" stroke="#27ae60" stroke-width="4"/>
  <path d="M64 16 L64 112" stroke="#27ae60" stroke-width="4"/>
  <path d="M16 64 L112 64" stroke="#27ae60" stroke-width="4"/>
</svg> 